<svg width="198" height="50" viewBox="0 0 198 50" fill="none" xmlns="http://www.w3.org/2000/svg">
<path d="M27.6363 17.3187L27.4634 17.586C27.3188 17.8096 27.5628 18.0802 27.8019 17.9614L28.0213 17.8524C28.0413 17.8425 28.0599 17.8301 28.0766 17.8154C28.2939 17.624 28.6836 17.2515 28.6836 17.1307C28.6836 17.0106 28.8758 16.8333 28.9849 16.7492C28.9947 16.7416 29.0041 16.7334 29.0132 16.725C29.1443 16.6035 29.2308 16.6525 29.2782 16.7276C29.3117 16.7805 29.299 16.847 29.2743 16.9044C29.1886 17.1037 29.2984 17.0253 29.1577 17.4448C29.0456 17.779 29.2151 17.8086 29.3468 17.7746C29.3791 17.7662 29.4115 17.7594 29.4448 17.7564C29.7946 17.7249 30.6629 17.4002 31.1009 17.2223C31.1225 17.2136 31.1449 17.2077 31.1681 17.2048L31.7207 17.1362C31.7502 17.1325 31.7788 17.124 31.8055 17.1107L32.6756 16.6784C32.7008 16.6658 32.7278 16.6574 32.7558 16.6535L33.2433 16.5843C33.2589 16.5821 33.274 16.5786 33.2889 16.5734C33.857 16.3778 34.6672 15.8184 35.0052 15.56C35.3212 15.2459 36.0324 14.5915 36.3485 14.3035L37.2177 13.5182C37.5217 13.2765 38.2399 12.4827 38.599 12.0731C38.6261 12.0421 38.6453 12.0054 38.6553 11.9655L38.7911 11.4256C38.7958 11.4071 38.8024 11.3893 38.811 11.3722L39.1058 10.7863C39.1114 10.7752 39.1161 10.7639 39.12 10.7521C39.2362 10.3999 39.36 9.85294 39.4184 9.57117C39.4263 9.5329 39.4425 9.49692 39.4661 9.46568L39.6404 9.23468C39.6582 9.21107 39.6718 9.18482 39.6807 9.15666C39.8434 8.64229 40.159 7.60232 40.2204 7.23574C40.2837 6.85879 40.2995 6.39808 40.2995 6.21484C40.2469 5.64068 40.1181 4.99063 40.0306 4.60697C40.004 4.48997 39.8988 4.40862 39.7782 4.40862H39.1142C37.5704 4.46999 36.1021 4.83608 35.5193 5.02381C35.4924 5.03246 35.4644 5.03785 35.4399 5.05179C35.3392 5.10909 35.118 5.31736 35.0052 5.42953C34.2466 6.24625 33.0033 7.65457 32.4765 8.25664C32.3185 8.46606 31.9392 8.99484 31.6863 9.43461C31.4335 9.87438 30.0533 12.1308 29.3948 13.2041C29.1314 13.6229 28.5571 14.5862 28.3675 15.0888C28.182 15.5806 27.83 16.7137 27.6669 17.2528C27.6598 17.2762 27.6496 17.2982 27.6363 17.3187Z" fill="black"/>
<path d="M33.4625 22.5954L33.0066 23.1052C32.9271 23.1941 32.9231 23.3236 32.9656 23.4348C33.0045 23.5366 33.0156 23.6303 33.0098 23.7131C32.9974 23.8912 33.0376 24.1239 33.1982 24.2037L33.3457 24.277L34.1359 24.5911C34.4971 24.7705 35.1733 25.0591 35.5101 25.1993C35.5421 25.2127 35.5761 25.2194 35.6108 25.2194H36.4015C36.4188 25.2194 36.4354 25.2209 36.4524 25.2243C36.8124 25.2968 38.2718 25.6065 39.0031 25.7622C39.0248 25.7669 39.0452 25.7741 39.065 25.7839L39.8086 26.1534C39.8198 26.159 39.8312 26.1637 39.843 26.1674C40.317 26.3169 41.0155 26.2412 41.4057 26.3188C41.6912 26.3755 41.9121 26.4792 42.0105 26.5373C42.029 26.5483 42.0479 26.558 42.0682 26.565C42.453 26.6981 43.3014 26.9297 43.8553 26.8685C44.395 26.8089 45.0721 26.6504 45.3876 26.5672C45.4196 26.5588 45.4526 26.5563 45.4855 26.5596C45.7393 26.5849 46.2067 26.6131 46.384 26.5544C46.5676 26.4936 46.9142 26.2315 47.0795 26.0961C47.0899 26.0875 47.1011 26.0796 47.1128 26.0728C47.8959 25.6132 48.5983 25.6894 48.8336 25.5335C49.0081 25.4178 49.1514 25.249 49.2142 25.1616C49.2241 25.1479 49.2319 25.1332 49.2383 25.1176C49.5297 24.4 49.5675 23.268 49.5483 22.7118C49.5464 22.6569 49.5266 22.6045 49.4903 22.5631C48.9654 21.9638 47.948 21.4697 47.4902 21.2928C46.9937 21.0461 46.0504 20.8296 45.6174 20.7475C45.6014 20.7445 45.586 20.7431 45.5697 20.743C44.8839 20.7372 43.7113 20.4897 43.1751 20.3581C43.1542 20.3529 43.134 20.3504 43.1125 20.3505C41.2867 20.3559 37.8485 20.8221 37.6128 20.9001C37.4421 20.9567 37.0451 21.2296 36.8139 21.3981C36.768 21.4315 36.713 21.4494 36.6563 21.4526C36.4017 21.467 35.903 21.5419 35.4003 21.764C34.8572 22.0038 33.983 22.3582 33.561 22.5265C33.5231 22.5416 33.4897 22.5651 33.4625 22.5954Z" fill="black"/>
<path d="M31.2912 31.2663C31.4528 30.9986 31.6641 30.37 31.7883 29.9631C31.8223 29.8514 31.9251 29.7742 32.0424 29.7742H33.1087C33.2907 29.7742 33.8267 30.0634 34.1025 30.2255C34.1248 30.2387 34.1487 30.248 34.1731 30.2567C34.4151 30.3438 34.7859 30.7092 34.9742 30.9174C34.9949 30.9403 35.0192 30.9596 35.0462 30.9747C35.7178 31.3493 36.1404 31.8463 36.2695 32.0516C36.5142 32.4772 37.2228 33.0843 37.5785 33.3602C37.6012 33.3778 37.6208 33.3986 37.637 33.4222C38.0135 33.9721 38.6499 34.6513 38.9411 34.9422C38.9513 34.9524 38.9603 34.9629 38.9685 34.9747C39.2706 35.4072 39.5466 36.2461 39.6577 36.6494C39.6642 36.673 39.6736 36.6955 39.6866 36.7163C39.8778 37.0214 40.2547 37.474 40.4402 37.6861C40.4517 37.6992 40.4617 37.713 40.4702 37.7283C40.7147 38.1658 41.0685 39.1399 41.2319 39.6223C41.2424 39.6532 41.2588 39.6817 41.2785 39.7077C41.5603 40.0789 41.6382 40.6881 41.6426 40.9783C41.6429 40.9955 41.6411 41.0124 41.6377 41.0293C41.5165 41.637 41.3868 42.4748 41.3316 42.8546C41.3283 42.8774 41.3221 42.8995 41.3129 42.9206C41.1404 43.3131 40.9175 43.6882 40.8023 43.8661C40.7835 43.8952 40.7589 43.9199 40.7291 43.9377C40.3678 44.1541 39.903 44.1697 39.6891 44.1478C39.6746 44.1463 39.6603 44.1433 39.6463 44.139C38.8645 43.9 38.1652 43.3593 38.0869 43.2815C38.0237 43.2187 37.0597 42.3129 36.5855 41.8679C36.3959 41.6795 36.0324 41.4229 35.8744 41.3182C35.6275 41.1342 33.754 39.1391 32.7829 38.0945C32.738 38.0462 32.7145 37.9833 32.71 37.9177C32.6911 37.6448 32.6024 37.4064 32.5555 37.3131L31.8576 35.7716C31.8488 35.7523 31.8424 35.7317 31.8385 35.7108C31.7253 35.1109 31.5649 34.7909 31.4768 34.6752C31.4598 34.6528 31.436 34.6373 31.415 34.6185C31.2804 34.4981 31.0347 34.0518 30.9091 33.8049C30.9004 33.7879 30.8938 33.7699 30.889 33.7514C30.77 33.2941 30.5588 32.8501 30.4464 32.6448C30.4305 32.6158 30.4196 32.5846 30.415 32.5519C30.3368 31.9885 30.2379 30.9521 30.422 30.9521C30.601 30.9521 30.6533 31.1387 30.6586 31.2477C30.6592 31.2601 30.66 31.2729 30.6619 31.2851C30.7454 31.8123 31.0569 31.6544 31.2912 31.2663Z" fill="black"/>
<path d="M23.4013 35.7659C23.275 35.936 23.1394 35.9529 23.0182 35.9008C22.8305 35.82 22.6088 35.8221 22.5699 36.0218C22.4809 36.4788 22.4049 37.145 22.3697 37.5219C22.3626 37.6809 22.3878 37.9651 22.4075 38.144C22.4136 38.1994 22.4026 38.2553 22.3752 38.3038L22.2622 38.5041C22.2507 38.5245 22.2419 38.5462 22.2368 38.569C22.1515 38.9496 21.9156 40.504 21.805 41.2572C21.6134 43.7556 22.0361 44.9494 22.1013 45.2657C22.1521 45.5122 22.3485 45.9834 22.4476 46.2046C22.4527 46.216 22.457 46.2272 22.4602 46.2393C22.5897 46.7224 22.4733 47.7166 22.9221 48.2008C23.3764 48.691 24.5473 49.1348 24.7023 49.22C24.8572 49.3052 26.1936 49.5997 26.7517 49.5461C27.3099 49.4926 27.4824 49.1869 27.5616 49.1904C27.625 49.1932 28.041 48.5328 28.2411 48.2022C28.5228 47.588 28.741 46.5009 28.8149 46.0342C28.8261 45.784 28.7103 44.8283 28.6509 44.3817C28.5565 43.8525 28.4333 42.7384 28.3726 42.1425C28.3646 42.064 28.3196 41.9935 28.2728 41.9298C27.9913 41.547 27.7089 40.2782 27.594 39.6343C27.548 39.2611 26.7857 37.5026 26.3957 36.6371C26.3854 36.6143 26.3789 36.5912 26.3751 36.5665C26.2685 35.872 25.8212 34.8212 25.6073 34.3755C25.4572 34.1018 25.1745 33.9549 24.9969 33.897C24.9445 33.8799 24.8874 33.8855 24.8414 33.9157C24.4344 34.1823 23.7235 35.2402 23.4013 35.7659Z" fill="black"/>
<path d="M6.05779 40.0719C5.75208 40.4193 5.06407 41.6155 4.72116 42.2369C4.69812 42.2787 4.68687 42.3262 4.69034 42.3737C4.72082 42.7906 4.84422 42.9468 4.95062 42.9877C5.01562 43.0127 5.0937 43.0102 5.16338 43.0114C5.47251 43.017 6.23354 42.8025 6.62281 42.6786C6.82078 42.5873 7.33625 42.4378 7.59858 42.3664C7.61999 42.3606 7.64167 42.3577 7.66384 42.3568C8.07681 42.3391 9.17661 42.0876 9.68811 41.9605C10.1865 41.8575 10.863 41.7678 11.1877 41.73C11.2234 41.7258 11.2574 41.7147 11.2887 41.6972C11.9792 41.3094 13.151 40.7792 13.7012 40.5405C13.7295 40.5282 13.7551 40.5112 13.7776 40.4902C14.5016 39.8174 15.4779 39.3179 15.9188 39.1335C15.9448 39.1226 15.969 39.1082 15.9901 39.0896C16.4251 38.7067 16.9318 38.0157 17.135 37.7114C17.5337 37.2014 17.9788 35.5398 18.1515 34.7728C18.5295 33.5384 18.7131 31.7222 18.7629 30.8952C18.7659 30.846 18.7545 30.7971 18.7304 30.7541L18.351 30.0754C18.3372 30.0508 18.3198 30.0284 18.2981 30.0104C17.9769 29.7428 17.4421 29.6395 17.1673 29.6169C17.1355 29.6142 17.1037 29.6182 17.0737 29.6291C16.6536 29.7812 15.8292 30.2992 15.457 30.5479C14.5208 31.229 13.2943 32.3045 12.798 32.7571C12.0554 33.4609 10.5438 34.7375 9.86264 35.3031C9.85044 35.3132 9.84025 35.3234 9.82995 35.3354C9.56519 35.6448 8.46342 36.7841 7.93564 37.3253C7.64042 37.5945 6.58826 39.2298 6.08641 40.0339C6.07777 40.0477 6.06858 40.0597 6.05779 40.0719Z" fill="black"/>
<path d="M16.7884 19.691C17.1073 20.3047 17.9733 21.2042 18.4207 21.9554C18.4587 22.0193 18.4663 22.0974 18.4348 22.1648C18.2121 22.6414 17.8258 22.5242 17.5579 22.9377C17.5436 22.9599 17.527 22.9811 17.5065 22.9978C17.2577 23.1997 16.9921 23.1408 16.4778 23.3232C16.4464 23.3343 16.4176 23.3523 16.3924 23.374C15.8977 23.8 15.7078 23.5301 14.9595 23.491C14.9381 23.4899 14.9152 23.4919 14.8941 23.496C14.1387 23.6438 14.6707 23.3067 14.0338 23.4895C12.867 23.8221 12.833 23.8634 12.3313 23.8448C12.2942 23.8434 12.2582 23.834 12.2245 23.8185C11.5188 23.4946 9.76508 23.2071 9.5034 23.1375C9.49049 23.1341 9.47855 23.131 9.46535 23.1289C8.96313 23.0478 7.79884 22.9446 7.34318 22.969C7.31527 22.9705 7.28716 22.9683 7.25989 22.9622C6.64714 22.8242 6.13829 22.9208 5.1175 22.4684L3.78309 21.8047C2.79823 21.2038 2.15316 20.6055 1.83044 19.9968C1.82386 19.9844 1.81687 19.9732 1.80865 19.9618C1.56158 19.6186 0.901659 18.3795 0.664491 17.5218C0.655569 17.4895 0.641123 17.4596 0.621508 17.4324C0.437963 17.178 0.199511 16.7801 0.0339098 16.492C-0.0380671 16.3668 0.00792953 16.2077 0.139763 16.1477C1.0073 15.7524 2.30503 15.5195 2.89072 15.4486C3.44229 15.4116 4.1799 15.4738 4.51991 15.5138C4.54823 15.5172 4.57645 15.516 4.60451 15.5109C5.10877 15.4193 5.99491 15.4248 6.42965 15.4408C6.46274 15.442 6.49503 15.4497 6.52528 15.4631L6.80732 15.5881C6.84895 15.6065 6.89467 15.6132 6.94023 15.6118C7.35416 15.5997 7.77464 15.8305 7.95562 15.9642C7.96658 15.9723 7.97772 15.9799 7.99005 15.9857C8.24237 16.1052 8.87421 16.0715 9.20274 16.0351C9.23127 16.032 9.25976 16.0331 9.28782 16.0391C9.67362 16.1215 10.4297 16.3101 10.7964 16.4035C10.8151 16.4083 10.8321 16.4146 10.8493 16.4233C11.6721 16.8378 13.7134 17.7772 14.736 18.061C14.752 18.0655 14.7666 18.0709 14.7814 18.0785C15.3154 18.3526 16.205 19.2729 16.6703 19.5647C16.7202 19.596 16.7614 19.6388 16.7884 19.691Z" fill="black"/>
<path d="M20.7153 15.0351C20.7741 15.2653 21.2431 16.3971 21.5242 17.0623C21.5651 17.1592 21.6603 17.2216 21.7659 17.2216H21.9661C22.1113 17.2216 22.229 17.1046 22.229 16.9601V16.8715C22.229 16.7551 22.3063 16.6527 22.4187 16.6203L23.492 16.3109C23.551 16.2938 23.6022 16.2568 23.6366 16.2062L24.1899 15.3927C24.2102 15.3629 24.2239 15.3299 24.2307 15.2944C24.562 13.5722 25.6555 10.8141 25.7343 10.4276C25.798 10.1153 25.8671 9.41243 25.8936 9.10006C25.831 6.88981 25.0964 4.24714 24.7182 3.14365C24.7052 3.1056 24.6837 3.07237 24.6551 3.0439C24.4272 2.81657 24.0014 2.36428 23.8223 2.07178C23.6337 1.76354 23.0158 0.923053 22.7188 0.525692C22.7108 0.514987 22.7022 0.505232 22.6927 0.495868L22.2636 0.0752444C22.1934 0.00649773 22.0906 -0.0174995 21.997 0.0130663L21.9505 0.0282499C21.9239 0.0369483 21.8991 0.0495345 21.8768 0.0663327C20.9284 0.778795 19.8362 2.238 19.6 3.08697C19.4149 3.75247 19.0654 5.20402 18.8988 5.90974C18.8885 5.95344 18.8897 5.99903 18.9022 6.04215L19.0081 6.40525C19.0298 6.47987 19.0171 6.56024 18.9733 6.62459L18.7392 6.96884C18.7289 6.98395 18.7205 6.99885 18.7147 7.01617C18.5614 7.47386 18.4862 9.81036 18.5644 10.1934C18.6281 10.5057 19.0158 11.3647 19.2017 11.7552L19.839 12.9266C20.1046 13.5253 20.6516 14.7852 20.7153 15.0351Z" fill="black"/>
<path d="M109.393 40.8979C105.115 40.8979 101.602 39.4253 98.8546 36.4801C96.1351 33.5065 94.7754 29.74 94.7754 25.1806C94.7754 20.5929 96.1068 16.7981 98.7696 13.7962C101.432 10.7944 104.959 9.29346 109.35 9.29346C112.976 9.29346 115.88 10.2563 118.061 12.182C120.27 14.0794 121.545 16.5291 121.885 19.5309H115.766C115.483 17.9733 114.775 16.7415 113.642 15.8352C112.537 14.929 111.106 14.4759 109.35 14.4759C106.659 14.4759 104.605 15.4671 103.189 17.4494C101.772 19.4318 101.064 22.0089 101.064 25.1806C101.064 28.3241 101.815 30.887 103.316 32.8693C104.846 34.8517 106.871 35.8429 109.393 35.8429C111.177 35.8429 112.664 35.3614 113.854 34.3986C115.044 33.4074 115.738 32.1047 115.936 30.4905H121.97C121.8 33.3508 120.681 35.7438 118.613 37.6695C116.319 39.8217 113.245 40.8979 109.393 40.8979Z" fill="black"/>
<path d="M124.515 40.2607V9.88817H130.677V21.9947L142.362 9.88817H150.01L138.113 22.0372L150.775 40.2607H143.552L133.779 26.0727L130.677 29.2161V40.2607H124.515Z" fill="black"/>
<path d="M152.523 40.2607V9.88817H158.685V35.1207H172.962V40.2607H152.523Z" fill="black"/>
<path d="M175.522 40.2607V9.88817H197.873V15.0706H181.683V21.8673H195.875V26.9223H181.683V35.1207H198V40.2607H175.522Z" fill="black"/>
<path d="M58.4624 40.76V10.3874H71.8048C75.2608 10.3874 77.9095 11.3361 79.7508 13.2335C81.5638 15.1026 82.4703 17.4106 82.4703 20.1576C82.4703 23.0462 81.5638 25.3684 79.7508 27.1242C77.9378 28.88 75.4591 29.7579 72.3147 29.7579H64.8362V40.76H58.4624ZM64.8362 15.7398V24.7453H71.2099C72.7963 24.7453 74.0144 24.3489 74.8642 23.5559C75.7141 22.7347 76.139 21.6161 76.139 20.2001C76.139 18.7841 75.7141 17.6938 74.8642 16.9292C74.0144 16.1363 72.8246 15.7398 71.2949 15.7398H64.8362Z" fill="black"/>
<path fill-rule="evenodd" clip-rule="evenodd" d="M87.3429 10.1855C87.1116 10.2482 86.834 10.3003 86.7261 10.3014C86.4742 10.3039 86.3896 10.3769 86.3896 10.5922C86.3896 10.7764 86.3049 10.7445 86.2667 10.5459C86.2388 10.4011 86.0235 10.4114 85.6902 10.5733C85.3933 10.7175 85.357 10.8346 85.4721 11.2764C85.5342 11.5153 85.5491 11.7229 85.5227 11.9809C85.5021 12.182 85.4864 12.4859 85.488 12.6561C85.4896 12.8263 85.5023 18.7893 85.5164 25.9073C85.5342 34.9386 85.5598 38.8549 85.6013 38.8687C85.6392 38.8814 85.6609 39.1758 85.6614 39.6857C85.6619 40.1242 85.6868 40.5209 85.7167 40.5674C85.7783 40.6631 85.7999 40.4357 85.7835 39.864L85.7738 39.5263L85.8582 39.7481C85.9046 39.8702 85.9485 40.1676 85.9558 40.4091C85.9631 40.6506 85.986 40.8483 86.0067 40.8485C86.0475 40.8487 86.1446 40.5692 86.1826 40.3423C86.1955 40.2649 86.2104 40.3662 86.2157 40.5674C86.221 40.7685 86.2602 40.9964 86.3029 41.0738L86.3804 41.2144L86.4098 41.0738C86.4951 40.6648 86.5578 39.992 86.5578 39.4865C86.5578 39.1731 86.5679 38.9272 86.5803 38.9401C86.5925 38.9531 86.6198 39.2295 86.6409 39.5545C86.662 39.8794 86.6887 40.2213 86.7004 40.3141C86.7121 40.407 86.7266 40.6168 86.7326 40.7805C86.7452 41.1257 86.8352 41.2398 86.8445 40.9224C86.8504 40.7194 86.8544 40.7245 86.9179 41.0175L86.9851 41.327L87.0346 40.905C87.0839 40.4858 87.0844 40.4846 87.121 40.7362C87.1566 40.981 87.1583 40.9828 87.1728 40.7925C87.1809 40.6841 87.1992 40.6398 87.2133 40.694C87.2274 40.7481 87.2624 40.7925 87.2909 40.7925C87.3195 40.7925 87.3454 40.9634 87.3485 41.1723C87.3525 41.4481 87.3664 41.5136 87.399 41.4115C87.4371 41.2922 87.4457 41.3093 87.4561 41.524L87.4682 41.7772L87.5139 41.5044C87.5634 41.2081 87.6233 41.0923 87.6233 41.2928C87.6233 41.3617 87.6464 41.4038 87.6746 41.3863C87.7028 41.3688 87.7386 41.3863 87.7543 41.4252C87.7699 41.4641 87.7847 41.4374 87.7871 41.3659C87.7895 41.2945 87.8167 41.2516 87.8476 41.2708C87.8784 41.2899 87.9064 41.2471 87.9096 41.1756C87.9153 41.0529 87.919 41.0543 87.9765 41.2004C88.0399 41.3614 88.1239 41.4066 88.1336 41.2848C88.1432 41.1635 88.2284 41.4863 88.2412 41.6928L88.2534 41.8898L88.2919 41.721C88.3131 41.6281 88.3581 41.5576 88.3919 41.5643C88.4256 41.571 88.4696 41.5111 88.4896 41.4311C88.521 41.3057 88.5945 41.2879 88.6096 41.4021C88.6124 41.4227 88.6423 41.5029 88.6761 41.5803L88.7377 41.721L88.7421 41.5521C88.7456 41.4218 88.759 41.4026 88.8009 41.4677C88.843 41.5331 88.8568 41.514 88.862 41.3833C88.8685 41.2201 88.8712 41.222 88.9427 41.4396L89.0166 41.6647L89.037 41.102L89.1545 41.4677C89.2306 41.7049 89.2799 41.7939 89.2945 41.721C89.307 41.6591 89.3471 41.5704 89.3837 41.524C89.4203 41.4776 89.4566 41.3636 89.4644 41.2708C89.4722 41.1779 89.5013 41.0513 89.529 40.9894C89.5567 40.9275 89.6035 40.5223 89.633 40.089C89.6625 39.6557 89.7035 39.2379 89.7239 39.1605C89.7444 39.0832 89.7608 38.8426 89.7604 38.626C89.7596 38.2133 89.8455 37.3768 89.8586 37.6693C89.8825 38.2019 89.9131 39.4599 89.9182 40.1172C89.9221 40.6114 89.9425 40.8478 89.9765 40.7938C90.0193 40.7258 90.0378 40.735 90.0781 40.8445C90.1235 40.9676 90.1332 40.9577 90.1999 40.7185C90.2459 40.5536 90.2595 40.3296 90.237 40.1051C90.165 39.3857 90.1797 38.8596 90.2766 38.6822L90.3689 38.5134L90.3438 38.851C90.3238 39.1174 90.3282 39.144 90.3641 38.977C90.4534 38.5622 90.4893 38.6754 90.5741 39.6389C90.6106 40.0537 90.6177 40.0736 90.666 39.8921C90.6947 39.7838 90.7056 39.6002 90.6902 39.4841C90.6748 39.3681 90.685 39.259 90.7129 39.2416C90.7408 39.2244 90.7654 39.2307 90.7676 39.2557C90.7699 39.2807 90.7839 39.5031 90.7988 39.7498C90.8137 39.9966 90.8371 40.2097 90.8509 40.2235C90.8645 40.2372 90.8758 40.0163 90.8758 39.7327C90.8758 39.369 90.8956 39.2168 90.943 39.2168C90.9954 39.2168 90.9954 39.2018 90.943 39.1493C90.906 39.1122 90.8783 39.0172 90.8814 38.9383L90.8869 38.7948L90.9767 39.0761L90.995 38.7948L91.0585 38.9355C91.1183 39.0679 91.1241 39.0596 91.1583 38.7948C91.1932 38.5242 91.1949 38.5291 91.2034 38.9214C91.2083 39.15 91.2369 39.3294 91.2683 39.3294C91.2991 39.3294 91.328 39.399 91.3324 39.4841C91.3368 39.5693 91.3613 39.3983 91.3868 39.1043C91.4124 38.8103 91.4241 38.4494 91.413 38.3024C91.4018 38.1554 91.4088 38.0351 91.4286 38.0352C91.4484 38.0353 91.46 37.8644 91.4545 37.6554C91.4477 37.4028 91.4577 37.332 91.4843 37.4442C91.5435 37.694 91.7157 36.6742 91.7124 36.0937C91.6969 33.3849 91.6925 30.2906 91.6987 26.668C91.7028 24.2694 91.7089 20.0152 91.7123 17.2142C91.7156 14.4132 91.7338 11.7285 91.7529 11.2481C91.7808 10.5416 91.7321 10.3567 91.6695 10.308C90.7269 10.308 90.2037 10.0837 89.3422 10.1232L88.9583 10.1239L88.9777 10.4096C88.9989 10.7211 89.0008 10.722 88.7265 10.2927C88.6026 10.0988 88.5941 10.0955 88.182 10.0837C87.9039 10.0756 87.6224 10.1098 87.3429 10.1855ZM91.5102 36.5017C91.5296 36.6747 91.5213 36.7971 91.49 36.7971C91.4606 36.7971 91.4365 36.6536 91.4365 36.4782C91.4365 36.093 91.4652 36.1021 91.5102 36.5017ZM91.6048 38.5978C91.6048 38.6391 91.6216 38.6559 91.6422 38.6354C91.6627 38.6147 91.6627 38.5809 91.6422 38.5603C91.6216 38.5397 91.6048 38.5566 91.6048 38.5978ZM91.111 39.245C91.1121 39.3378 91.1247 39.369 91.1389 39.3142C91.1532 39.2595 91.1522 39.1835 91.1368 39.1454C91.1215 39.1073 91.1099 39.1521 91.111 39.245ZM90.2589 39.4419C90.2589 39.4832 90.2757 39.5 90.2963 39.4794C90.3168 39.4588 90.3168 39.425 90.2963 39.4044C90.2757 39.3838 90.2589 39.4007 90.2589 39.4419ZM91.2211 39.4982C91.2211 39.5756 91.2338 39.6072 91.2493 39.5685C91.2649 39.5299 91.2649 39.4666 91.2493 39.4278C91.2338 39.3892 91.2211 39.4208 91.2211 39.4982ZM90.0181 40.0187C90.0047 40.0883 89.9938 40.0314 89.9938 39.8921C89.9938 39.7528 90.0047 39.6959 90.0181 39.7655C90.0315 39.8351 90.0315 39.9491 90.0181 40.0187ZM89.707 39.9484C89.707 40.0257 89.7197 40.0574 89.7353 40.0187C89.7508 39.98 89.7508 39.9167 89.7353 39.878C89.7197 39.8394 89.707 39.871 89.707 39.9484ZM91.2792 40.089C91.2803 40.1819 91.2929 40.2131 91.3072 40.1583C91.3214 40.1036 91.3204 40.0276 91.3051 39.9895C91.2897 39.9514 91.2781 39.9962 91.2792 40.089ZM90.0599 40.4465C90.0727 40.5749 90.0596 40.6799 90.0308 40.6799C90.0021 40.6799 89.9785 40.5617 89.9785 40.4173C89.9785 40.1026 90.0276 40.1202 90.0599 40.4465ZM90.8349 40.6236C90.8349 40.7629 90.8459 40.8199 90.8593 40.7502C90.8726 40.6806 90.8726 40.5666 90.8593 40.497C90.8459 40.4274 90.8349 40.4844 90.8349 40.6236ZM91.2232 40.5392C91.2243 40.6321 91.2368 40.6633 91.2511 40.6085C91.2653 40.5537 91.2644 40.4778 91.249 40.4397C91.2336 40.4016 91.222 40.4464 91.2232 40.5392ZM90.5954 40.6236C90.5954 40.6649 90.6122 40.6818 90.6328 40.6612C90.6533 40.6405 90.6533 40.6068 90.6328 40.5861C90.6122 40.5655 90.5954 40.5824 90.5954 40.6236Z" fill="black"/>
</svg>
