<svg width="639" height="175" viewBox="0 0 639 175" fill="none" xmlns="http://www.w3.org/2000/svg">
<path d="M97.6005 61.1628L96.99 62.1067C96.4792 62.8963 97.3412 63.8521 98.1856 63.4325L98.9602 63.0476C99.0309 63.0125 99.0965 62.9689 99.1557 62.9168C99.9231 62.2409 101.299 60.9253 101.299 60.4986C101.299 60.0748 101.978 59.4485 102.363 59.1515C102.398 59.1248 102.431 59.0958 102.463 59.066C102.926 58.6368 103.232 58.81 103.399 59.0752C103.517 59.262 103.472 59.4969 103.385 59.6998C103.083 60.4036 103.47 60.1267 102.974 61.608C102.578 62.7882 103.176 62.893 103.641 62.7728C103.755 62.7432 103.87 62.7192 103.988 62.7086C105.223 62.5972 108.289 61.4504 109.836 60.8224C109.913 60.7914 109.992 60.7708 110.074 60.7607L112.025 60.5182C112.129 60.5053 112.23 60.475 112.324 60.4283L115.397 58.9013C115.487 58.857 115.582 58.8275 115.681 58.8134L117.402 58.569C117.457 58.5612 117.511 58.5489 117.563 58.5308C119.57 57.8397 122.431 55.8644 123.625 54.9518C124.741 53.8425 127.252 51.5313 128.369 50.5144L131.438 47.741C132.512 46.8874 135.048 44.0841 136.317 42.6374C136.412 42.528 136.48 42.3982 136.515 42.2574L136.995 40.3508C137.012 40.2854 137.035 40.2224 137.065 40.1621L138.106 38.0928C138.126 38.0537 138.143 38.0138 138.157 37.9723C138.567 36.7283 139.004 34.7967 139.21 33.8016C139.238 33.6664 139.295 33.5393 139.379 33.429L139.994 32.6132C140.057 32.5298 140.105 32.4371 140.137 32.3377C140.711 30.5211 141.826 26.8484 142.043 25.5538C142.266 24.2225 142.322 22.5955 142.322 21.9483C142.136 19.9206 141.681 17.6249 141.373 16.27C141.278 15.8568 140.907 15.5695 140.481 15.5695H138.136C132.684 15.7862 127.498 17.0791 125.44 17.7421C125.345 17.7726 125.247 17.7917 125.16 17.8409C124.804 18.0433 124.023 18.7788 123.625 19.1749C120.945 22.0593 116.555 27.0329 114.694 29.1592C114.136 29.8987 112.797 31.7662 111.904 33.3193C111.011 34.8724 106.136 42.8413 103.811 46.6316C102.881 48.1108 100.853 51.5128 100.183 53.2878C99.5277 55.0243 98.2848 59.0262 97.7086 60.9301C97.6836 61.0127 97.6475 61.0902 97.6005 61.1628Z" fill="black"/>
<path d="M118.177 79.798L116.566 81.5982C116.286 81.9121 116.271 82.3697 116.422 82.7624C116.559 83.1217 116.598 83.453 116.578 83.7451C116.534 84.3743 116.676 85.1958 117.243 85.4777L117.764 85.7366L120.555 86.846C121.83 87.4797 124.218 88.4989 125.408 88.994C125.521 89.041 125.641 89.0647 125.764 89.0647H128.556C128.617 89.0647 128.676 89.0702 128.736 89.0823C130.007 89.3383 135.161 90.4321 137.744 90.982C137.82 90.9983 137.892 91.0237 137.962 91.0584L140.589 92.3635C140.628 92.383 140.668 92.3997 140.71 92.4129C142.384 92.9407 144.851 92.6736 146.229 92.9475C147.237 93.1478 148.017 93.514 148.365 93.7193C148.43 93.7579 148.497 93.7922 148.569 93.817C149.927 94.2869 152.924 95.1049 154.88 94.8889C156.786 94.6784 159.177 94.1186 160.291 93.8249C160.404 93.7951 160.521 93.7863 160.637 93.7979C161.533 93.8873 163.184 93.9869 163.81 93.7795C164.459 93.5647 165.683 92.6391 166.266 92.1609C166.303 92.1307 166.343 92.1028 166.384 92.0786C169.15 90.4555 171.63 90.7246 172.461 90.1741C173.078 89.7657 173.584 89.1693 173.805 88.8607C173.84 88.8122 173.868 88.7604 173.89 88.7052C174.92 86.1712 175.053 82.1734 174.985 80.2091C174.978 80.0151 174.909 79.83 174.78 79.6837C172.927 77.5673 169.334 75.8224 167.717 75.1977C165.964 74.3264 162.632 73.562 161.103 73.272C161.046 73.2613 160.992 73.2564 160.934 73.2559C158.512 73.2356 154.371 72.3613 152.478 71.8966C152.404 71.8785 152.332 71.8695 152.257 71.8698C145.808 71.8887 133.666 73.5352 132.834 73.811C132.231 74.0107 130.829 74.9745 130.012 75.5696C129.85 75.6876 129.656 75.7507 129.456 75.7621C128.556 75.813 126.795 76.0775 125.02 76.8617C123.102 77.7088 120.015 78.9601 118.524 79.5546C118.391 79.608 118.272 79.6909 118.177 79.798Z" fill="black"/>
<path d="M110.508 110.42C111.079 109.475 111.825 107.255 112.264 105.818C112.384 105.423 112.747 105.15 113.161 105.15H116.927C117.57 105.15 119.463 106.172 120.437 106.745C120.516 106.791 120.6 106.824 120.686 106.855C121.541 107.162 122.85 108.453 123.515 109.188C123.588 109.269 123.674 109.337 123.77 109.39C126.141 110.713 127.634 112.468 128.09 113.193C128.954 114.696 131.456 116.84 132.713 117.815C132.793 117.877 132.862 117.951 132.919 118.034C134.249 119.976 136.496 122.374 137.525 123.402C137.561 123.438 137.592 123.475 137.622 123.517C138.688 125.044 139.663 128.007 140.055 129.431C140.078 129.514 140.112 129.594 140.158 129.667C140.833 130.745 142.164 132.343 142.819 133.092C142.86 133.139 142.895 133.187 142.925 133.241C143.789 134.786 145.038 138.226 145.615 139.93C145.652 140.039 145.71 140.14 145.78 140.232C146.775 141.543 147.05 143.694 147.065 144.719C147.066 144.78 147.06 144.84 147.048 144.899C146.62 147.045 146.162 150.004 145.967 151.346C145.956 151.426 145.934 151.504 145.901 151.578C145.292 152.965 144.504 154.289 144.098 154.918C144.031 155.02 143.944 155.108 143.839 155.171C142.563 155.935 140.922 155.99 140.166 155.912C140.115 155.907 140.065 155.896 140.015 155.881C137.254 155.037 134.785 153.128 134.508 152.853C134.285 152.631 130.88 149.432 129.206 147.861C128.536 147.195 127.252 146.289 126.694 145.919C125.822 145.27 119.206 138.224 115.776 134.535C115.618 134.364 115.535 134.142 115.519 133.91C115.452 132.946 115.139 132.104 114.973 131.775L112.508 126.331C112.478 126.263 112.455 126.19 112.441 126.116C112.041 123.998 111.475 122.868 111.164 122.459C111.104 122.38 111.02 122.325 110.945 122.259C110.47 121.833 109.602 120.257 109.159 119.385C109.128 119.325 109.105 119.262 109.088 119.197C108.668 117.582 107.922 116.014 107.525 115.288C107.469 115.186 107.43 115.076 107.414 114.96C107.138 112.971 106.788 109.311 107.439 109.311C108.071 109.311 108.256 109.97 108.274 110.354C108.276 110.398 108.279 110.443 108.286 110.486C108.581 112.348 109.681 111.791 110.508 110.42Z" fill="black"/>
<path d="M82.6442 126.311C82.1981 126.912 81.7192 126.971 81.2913 126.787C80.6284 126.502 79.8454 126.509 79.708 127.215C79.3936 128.829 79.1255 131.181 79.0012 132.512C78.9759 133.074 79.0651 134.078 79.1345 134.709C79.156 134.905 79.1172 135.102 79.0204 135.274L78.6213 135.981C78.5806 136.053 78.5497 136.13 78.5317 136.21C78.2304 137.555 77.3975 143.044 77.0067 145.704C76.33 154.527 77.8228 158.744 78.053 159.86C78.2324 160.731 78.9263 162.395 79.2763 163.176C79.2943 163.216 79.3092 163.256 79.3206 163.299C79.7779 165.005 79.367 168.516 80.9518 170.226C82.5563 171.957 86.6915 173.524 87.2387 173.825C87.786 174.126 92.5056 175.166 94.4767 174.977C96.4478 174.788 97.0571 173.709 97.3369 173.721C97.5607 173.731 99.03 171.398 99.7366 170.231C100.731 168.062 101.502 164.223 101.763 162.574C101.803 161.691 101.393 158.316 101.184 156.739C100.85 154.87 100.415 150.935 100.201 148.831C100.173 148.553 100.014 148.304 99.8484 148.079C98.8542 146.727 97.857 142.247 97.4511 139.973C97.2889 138.655 94.5968 132.444 93.2192 129.388C93.183 129.307 93.1599 129.225 93.1465 129.138C92.7703 126.686 91.1905 122.974 90.4349 121.401C89.9049 120.434 88.9067 119.915 88.2794 119.711C88.0943 119.65 87.8927 119.67 87.7301 119.777C86.2928 120.718 83.782 124.454 82.6442 126.311Z" fill="black"/>
<path d="M21.3937 141.518C20.3141 142.745 17.8843 146.969 16.6733 149.164C16.5919 149.312 16.5522 149.479 16.5644 149.647C16.6721 151.119 17.1079 151.671 17.4837 151.815C17.7132 151.904 17.989 151.895 18.235 151.899C19.3268 151.919 22.0144 151.161 23.3892 150.724C24.0883 150.401 25.9088 149.874 26.8352 149.621C26.9108 149.601 26.9874 149.591 27.0657 149.587C28.5241 149.525 32.4082 148.636 34.2146 148.188C35.9746 147.824 38.3638 147.507 39.5108 147.374C39.6367 147.359 39.7567 147.32 39.8671 147.258C42.3058 145.888 46.4442 144.016 48.3872 143.173C48.4872 143.13 48.5775 143.07 48.6572 142.995C51.2139 140.619 54.662 138.855 56.2189 138.204C56.3109 138.166 56.3962 138.115 56.471 138.049C58.0069 136.696 59.7964 134.256 60.514 133.182C61.9222 131.381 63.4941 125.513 64.104 122.804C65.4389 118.444 66.0872 112.03 66.2633 109.11C66.2737 108.936 66.2334 108.763 66.1484 108.611L64.8084 106.214C64.7599 106.128 64.6984 106.048 64.6218 105.985C63.4875 105.04 61.5989 104.675 60.6283 104.595C60.5158 104.586 60.4037 104.6 60.2976 104.638C58.8139 105.175 55.9024 107.005 54.5882 107.883C51.2818 110.288 46.9501 114.087 45.1977 115.685C42.575 118.17 37.2366 122.679 34.831 124.676C34.7879 124.712 34.7519 124.748 34.7155 124.791C33.7805 125.883 29.8895 129.907 28.0256 131.818C26.983 132.769 23.2671 138.544 21.4948 141.384C21.4643 141.433 21.4319 141.475 21.3937 141.518Z" fill="black"/>
<path d="M59.2902 69.5406C60.4161 71.7081 63.4747 74.8847 65.0545 77.5379C65.1889 77.7636 65.2157 78.0392 65.1046 78.2771C64.318 79.9603 62.9537 79.5464 62.0077 81.0068C61.957 81.0851 61.8986 81.1602 61.8261 81.219C60.9475 81.9322 60.0095 81.724 58.1932 82.3682C58.0824 82.4075 57.9804 82.4711 57.8915 82.5477C56.1445 84.052 55.4739 83.0988 52.8311 82.9609C52.7554 82.9569 52.6746 82.9639 52.6002 82.9785C49.9324 83.5006 51.8111 82.3099 49.5619 82.9554C45.4411 84.1302 45.3211 84.276 43.5493 84.2103C43.4181 84.2054 43.2913 84.1721 43.1721 84.1174C40.6799 82.9737 34.4864 81.9583 33.5623 81.7124C33.5167 81.7003 33.4745 81.6896 33.4279 81.6821C31.6543 81.3957 27.5425 81.0311 25.9333 81.1173C25.8347 81.1226 25.7354 81.1149 25.6391 81.0933C23.4751 80.6059 21.6781 80.9471 18.073 79.3493L13.3604 77.0055C9.88225 74.8835 7.60413 72.7705 6.46441 70.6208C6.44117 70.5769 6.41646 70.5373 6.38745 70.497C5.51488 69.285 3.18431 64.9092 2.34672 61.8799C2.31521 61.7659 2.2642 61.6602 2.19492 61.5642C1.54672 60.6658 0.704595 59.2606 0.119756 58.2432C-0.134438 57.801 0.028004 57.2392 0.493589 57.0271C3.55739 55.6312 8.14046 54.8085 10.2089 54.5581C12.1568 54.4278 14.7618 54.6473 15.9626 54.7887C16.0626 54.8005 16.1622 54.7963 16.2613 54.7783C18.0422 54.4547 21.1717 54.4742 22.707 54.5308C22.8239 54.5351 22.9379 54.562 23.0447 54.6094L24.0408 55.0508C24.1878 55.116 24.3493 55.1395 24.5102 55.1348C25.972 55.092 27.457 55.9072 28.0961 56.3793C28.1349 56.408 28.1742 56.4346 28.2177 56.4552C29.1088 56.877 31.3402 56.758 32.5005 56.6297C32.6012 56.6186 32.7019 56.6225 32.801 56.6437C34.1634 56.9346 36.8335 57.6007 38.1288 57.9307C38.1947 57.9474 38.2549 57.9698 38.3155 58.0004C41.2214 59.4645 48.4304 62.7819 52.0417 63.7844C52.0983 63.8001 52.1498 63.8192 52.202 63.846C54.0878 64.8141 57.2298 68.0643 58.8731 69.0946C59.0493 69.2051 59.1945 69.3565 59.2902 69.5406Z" fill="black"/>
<path d="M73.1585 53.0978C73.3659 53.9109 75.0222 57.9079 76.0149 60.2573C76.1595 60.5993 76.4957 60.82 76.8688 60.82H77.5758C78.0886 60.82 78.5042 60.4065 78.5042 59.8965V59.5833C78.5042 59.1722 78.7773 58.8107 79.1741 58.6963L82.9647 57.6034C83.1731 57.5434 83.3537 57.4126 83.4752 57.2339L85.4291 54.361C85.5009 54.2555 85.5492 54.1389 85.5733 54.0138C86.7434 47.9316 90.6051 38.1911 90.8835 36.8262C91.1086 35.7231 91.3525 33.241 91.4462 32.1378C91.225 24.3321 88.6308 14.9992 87.2952 11.1021C87.2491 10.9677 87.173 10.8504 87.0723 10.7498C86.2675 9.94702 84.7635 8.34971 84.1312 7.31668C83.4649 6.22814 81.2828 3.25985 80.2339 1.85654C80.2057 1.81873 80.1754 1.78428 80.1416 1.75121L78.6262 0.265733C78.3785 0.0229474 78.0152 -0.0618014 77.6849 0.046145L77.5208 0.0997672C77.4267 0.130487 77.3392 0.174936 77.2603 0.234261C73.911 2.75039 70.0538 7.90371 69.2197 10.902C68.5659 13.2522 67.3315 18.3785 66.7431 20.8708C66.7066 21.0252 66.7109 21.1862 66.7553 21.3385L67.129 22.6208C67.2059 22.8843 67.1609 23.1682 67.0063 23.3954L66.1794 24.6112C66.1431 24.6645 66.1133 24.7171 66.0928 24.7783C65.5516 26.3947 65.2861 34.6463 65.5621 35.9989C65.7872 37.102 67.1564 40.1357 67.8129 41.5147L70.0637 45.6515C71.0015 47.7659 72.9334 52.2153 73.1585 53.0978Z" fill="black"/>
<path d="M219.158 138.92C222.144 138.92 224.491 138.6 226.197 137.96C227.904 137.32 229.184 136.413 230.038 135.24C230.891 134.067 231.424 132.68 231.637 131.08C231.851 129.373 231.958 127.56 231.958 125.64V53.64C231.958 51.72 231.851 49.96 231.637 48.36C231.424 46.6533 230.891 45.2133 230.038 44.04C229.184 42.8667 227.904 41.96 226.197 41.32C224.491 40.68 222.144 40.36 219.158 40.36H218.038V34.28H270.358C281.878 34.28 290.624 36.8933 296.598 42.12C302.678 47.3467 305.717 54.3867 305.717 63.24C305.717 68.36 304.651 72.9467 302.518 77C300.491 81.0533 297.664 84.4667 294.038 87.24C290.411 90.0133 286.197 92.1467 281.397 93.64C276.597 95.1333 271.424 95.88 265.878 95.88C261.504 95.88 258.038 95.72 255.478 95.4C253.024 94.9733 251.424 94.6533 250.678 94.44V126.76C250.678 130.493 251.637 133.48 253.557 135.72C255.477 137.853 259.318 138.92 265.078 138.92H268.438V145H218.038V138.92H219.158ZM261.878 87.4C269.451 87.4 275.318 85.5333 279.478 81.8C283.638 78.0667 285.717 72.36 285.717 64.68C285.717 57.96 283.904 52.5733 280.277 48.52C276.651 44.36 271.317 42.28 264.277 42.28H263.957C258.944 42.28 255.477 43.1333 253.557 44.84C251.637 46.5467 250.678 49.7467 250.678 54.44V86.28C251.211 86.4933 252.437 86.76 254.357 87.08C256.277 87.2933 258.784 87.4 261.878 87.4Z" fill="black"/>
<path d="M329.004 53.16C325.697 53.16 322.87 51.9867 320.524 49.64C318.177 47.2933 317.004 44.4667 317.004 41.16C317.004 37.8533 318.177 35.0267 320.524 32.68C322.87 30.3333 325.697 29.16 329.004 29.16C332.31 29.16 335.137 30.3333 337.484 32.68C339.83 35.0267 341.004 37.8533 341.004 41.16C341.004 44.4667 339.83 47.2933 337.484 49.64C335.137 51.9867 332.31 53.16 329.004 53.16ZM312.204 138.92C316.47 138.92 319.404 138.173 321.004 136.68C322.604 135.187 323.404 132.68 323.404 129.16V88.52C323.404 85 322.604 82.5467 321.004 81.16C319.404 79.7733 316.95 79.08 313.644 79.08H310.124V73.8C311.404 73.48 313.164 73.0533 315.404 72.52C317.75 71.9867 320.15 71.4 322.604 70.76C325.057 70.12 327.404 69.5333 329.644 69C331.884 68.36 333.644 67.8267 334.924 67.4H339.564V129.16C339.564 132.68 340.364 135.187 341.964 136.68C343.564 138.173 346.497 138.92 350.764 138.92H351.884V145H310.604V138.92H312.204Z" fill="black"/>
<path d="M417.259 89.96C416.512 84.84 414.432 81 411.019 78.44C407.712 75.7733 403.499 74.44 398.379 74.44C396.032 74.44 393.525 74.8667 390.859 75.72C388.192 76.4667 385.739 77.96 383.499 80.2C381.259 82.3333 379.392 85.3733 377.899 89.32C376.405 93.16 375.659 98.2267 375.659 104.52C375.659 107.933 376.032 111.347 376.779 114.76C377.632 118.173 378.912 121.213 380.619 123.88C382.432 126.547 384.725 128.733 387.499 130.44C390.272 132.04 393.632 132.84 397.579 132.84C402.912 132.84 407.285 131.187 410.699 127.88C414.219 124.573 416.405 119.933 417.259 113.96H435.499C433.792 124.733 429.685 133 423.179 138.76C416.779 144.413 408.245 147.24 397.579 147.24C391.072 147.24 385.312 146.173 380.299 144.04C375.392 141.8 371.232 138.813 367.819 135.08C364.405 131.24 361.792 126.707 359.979 121.48C358.272 116.253 357.419 110.6 357.419 104.52C357.419 98.3333 358.272 92.52 359.979 87.08C361.685 81.64 364.245 76.9467 367.659 73C371.072 68.9467 375.285 65.8 380.299 63.56C385.419 61.2133 391.392 60.04 398.219 60.04C403.019 60.04 407.552 60.68 411.819 61.96C416.192 63.1333 420.032 64.9467 423.339 67.4C426.752 69.8533 429.525 72.9467 431.659 76.68C433.792 80.4133 435.072 84.84 435.499 89.96H417.259Z" fill="black"/>
<path d="M447.605 30.76H465.845V95.72L498.805 62.28H521.205L489.525 92.68L524.245 145H502.005L476.725 104.84L465.845 115.4V145H447.605V30.76Z" fill="black"/>
<path d="M542.023 30.76H560.263L536.583 145H518.343L542.023 30.76Z" fill="black"/>
<path d="M619.976 96.36C620.083 95.8267 620.136 95.4 620.136 95.08C620.136 94.6533 620.136 94.2267 620.136 93.8V91.24C620.136 86.3333 618.59 82.3333 615.496 79.24C612.403 76.04 608.136 74.44 602.696 74.44C595.87 74.44 590.43 76.52 586.376 80.68C582.323 84.7333 579.39 89.96 577.576 96.36H619.976ZM633.256 119.4C630.376 129.107 625.523 136.2 618.696 140.68C611.87 145.053 603.443 147.24 593.416 147.24C588.19 147.24 583.336 146.44 578.856 144.84C574.483 143.133 570.696 140.733 567.496 137.64C564.296 134.44 561.79 130.653 559.976 126.28C558.163 121.8 557.256 116.733 557.256 111.08C557.256 104.68 558.27 98.44 560.296 92.36C562.323 86.28 565.256 80.84 569.096 76.04C573.043 71.24 577.843 67.4 583.496 64.52C589.256 61.5333 595.816 60.04 603.176 60.04C610.536 60.04 616.51 61.2667 621.096 63.72C625.683 66.1733 629.256 69.2667 631.816 73C634.376 76.7333 636.083 80.84 636.936 85.32C637.896 89.8 638.376 94.0667 638.376 98.12C638.376 100.147 638.27 102.013 638.056 103.72C637.843 105.427 637.63 106.973 637.416 108.36H575.816C575.71 108.893 575.603 109.373 575.496 109.8C575.496 110.227 575.496 110.653 575.496 111.08V113.64C575.496 119.4 576.99 124.04 579.976 127.56C583.07 131.08 588.136 132.84 595.176 132.84C600.083 132.84 604.296 131.72 607.816 129.48C611.336 127.24 613.736 123.88 615.016 119.4H633.256Z" fill="black"/>
</svg>
